<svg id="SvgjsSvg1066" width="288" height="288" xmlns="http://www.w3.org/2000/svg" version="1.1" xmlns:xlink="http://www.w3.org/1999/xlink" xmlns:svgjs="http://svgjs.com/svgjs"><defs id="SvgjsDefs1067"></defs><g id="SvgjsG1068"><svg xmlns="http://www.w3.org/2000/svg" viewBox="0 0 32 32" width="288" height="288"><path d="M12 1H4A3 3 0 0 0 1 4V18a3 3 0 0 0 3 3h8a3 3 0 0 0 3-3V4A3 3 0 0 0 12 1zm1 17a1 1 0 0 1-1 1H4a1 1 0 0 1-1-1V4A1 1 0 0 1 4 3h8a1 1 0 0 1 1 1zM12 23H4a3 3 0 0 0-3 3v2a3 3 0 0 0 3 3h8a3 3 0 0 0 3-3V26A3 3 0 0 0 12 23zm1 5a1 1 0 0 1-1 1H4a1 1 0 0 1-1-1V26a1 1 0 0 1 1-1h8a1 1 0 0 1 1 1zM28 11H20a3 3 0 0 0-3 3V28a3 3 0 0 0 3 3h8a3 3 0 0 0 3-3V14A3 3 0 0 0 28 11zm1 17a1 1 0 0 1-1 1H20a1 1 0 0 1-1-1V14a1 1 0 0 1 1-1h8a1 1 0 0 1 1 1zM28 1H20a3 3 0 0 0-3 3V6a3 3 0 0 0 3 3h8a3 3 0 0 0 3-3V4A3 3 0 0 0 28 1zm1 5a1 1 0 0 1-1 1H20a1 1 0 0 1-1-1V4a1 1 0 0 1 1-1h8a1 1 0 0 1 1 1z" fill="#ffffff" class="color000 svgShape"></path></svg></g></svg>