<svg id="SvgjsSvg1042" width="288" height="288" xmlns="http://www.w3.org/2000/svg" version="1.1" xmlns:xlink="http://www.w3.org/1999/xlink" xmlns:svgjs="http://svgjs.com/svgjs"><defs id="SvgjsDefs1043"></defs><g id="SvgjsG1044"><svg xmlns="http://www.w3.org/2000/svg" xmlns:svgjs="http://svgjs.com/svgjs" xmlns:xlink="http://www.w3.org/1999/xlink" viewBox="0 0 288 288" width="288" height="288"><svg xmlns="http://www.w3.org/2000/svg" viewBox="0 0 48 48" width="288" height="288"><path fill="#ffffff" d="M45 15h-4v-5a1 1 0 0 0-1-1h-4V1a1 1 0 0 0-1-1H13a1 1 0 0 0-1 1v8H8a1 1 0 0 0-1 1v5H3a3 3 0 0 0-3 3v20a3 3 0 0 0 3 3h9v6a1 1 0 0 0 1 1h22a1 1 0 0 0 1-1v-6h9a3 3 0 0 0 3-3V18a3 3 0 0 0-3-3Zm-6-4v4h-3v-4ZM14 2h20v13H14Zm-5 9h3v4H9Zm33 6v6H6v-6ZM9 39v-7h3v7Zm25 7H14V32h20Zm2-7v-7h3v7Zm10-1a1 1 0 0 1-1 1h-4v-8a1 1 0 0 0-1-1H8a1 1 0 0 0-1 1v8H3a1 1 0 0 1-1-1V18a1 1 0 0 1 1-1h1v7a1 1 0 0 0 1 1h38a1 1 0 0 0 1-1v-7h1a1 1 0 0 1 1 1Z" class="color000 svgShape color594848"></path><path fill="#ffffff" d="M8.29 20.71a1 1 0 1 0-.21-1.09 1 1 0 0 0 .21 1.09zM30 34H18a1 1 0 0 0 0 2h12a1 1 0 0 0 0-2zm0 4H18a1 1 0 0 0 0 2h12a1 1 0 0 0 0-2zm0 4H18a1 1 0 0 0 0 2h12a1 1 0 0 0 0-2z" class="color000 svgShape color594848"></path></svg></svg></g></svg>